<svg version="1.1" xmlns:svg="http://www.w3.org/2000/svg" width="600" height="300" xmlns="http://www.w3.org/2000/svg" id="svg2">
 <defs id="defs2"/>
 <path stroke="#32cd32" fill="none" d="m 49.06687,11.452516 a 1887.5906,1875.6675 0 0 0 503.35748,0 V 236.53262 a 1887.5906,1875.6675 0 0 1 -503.35748,0 z" stroke-width="12.5441" id="path1"/>
 <path stroke="#32cd32" fill="none" d="m 49.06687,149.00147 a 50.335748,50.0178 0 0 0 -37.751811,37.51335 v 25.0089 a 62.919685,62.52225 0 0 0 37.751811,62.52225 1887.5906,1875.6675 0 0 0 503.35748,0 62.919685,62.52225 0 0 0 37.75181,-62.52225 v -25.0089 a 50.335748,50.0178 0 0 0 -37.75181,-37.51335" stroke-width="12.5441" id="path2"/>
</svg>
<svg version="1.1" xmlns:svg="http://www.w3.org/2000/svg" width="600" height="300" xmlns="http://www.w3.org/2000/svg" id="svg2">
 <defs id="defs2"/>
 <path stroke="#32cd32" fill="none" d="m 49.06687,11.452516 a 1887.5906,1875.6675 0 0 0 503.35748,0 V 236.53262 a 1887.5906,1875.6675 0 0 1 -503.35748,0 z" stroke-width="12.5441" id="path1"/>
 <path stroke="#32cd32" fill="none" d="m 49.06687,149.00147 a 50.335748,50.0178 0 0 0 -37.751811,37.51335 v 25.0089 a 62.919685,62.52225 0 0 0 37.751811,62.52225 1887.5906,1875.6675 0 0 0 503.35748,0 62.919685,62.52225 0 0 0 37.75181,-62.52225 v -25.0089 a 50.335748,50.0178 0 0 0 -37.75181,-37.51335" stroke-width="12.5441" id="path2"/>
</svg>
<svg version="1.1" xmlns:svg="http://www.w3.org/2000/svg" width="600" height="300" xmlns="http://www.w3.org/2000/svg" id="svg2">
 <defs id="defs2"/>
 <path stroke="#32cd32" fill="none" d="m 49.06687,11.452516 a 1887.5906,1875.6675 0 0 0 503.35748,0 V 236.53262 a 1887.5906,1875.6675 0 0 1 -503.35748,0 z" stroke-width="12.5441" id="path1"/>
 <path stroke="#32cd32" fill="none" d="m 49.06687,149.00147 a 50.335748,50.0178 0 0 0 -37.751811,37.51335 v 25.0089 a 62.919685,62.52225 0 0 0 37.751811,62.52225 1887.5906,1875.6675 0 0 0 503.35748,0 62.919685,62.52225 0 0 0 37.75181,-62.52225 v -25.0089 a 50.335748,50.0178 0 0 0 -37.75181,-37.51335" stroke-width="12.5441" id="path2"/>
</svg>
<svg version="1.1" xmlns:svg="http://www.w3.org/2000/svg" width="600" height="300" xmlns="http://www.w3.org/2000/svg" id="svg2">
 <defs id="defs2"/>
 <path stroke="#32cd32" fill="none" d="m 49.06687,11.452516 a 1887.5906,1875.6675 0 0 0 503.35748,0 V 236.53262 a 1887.5906,1875.6675 0 0 1 -503.35748,0 z" stroke-width="12.5441" id="path1"/>
 <path stroke="#32cd32" fill="none" d="m 49.06687,149.00147 a 50.335748,50.0178 0 0 0 -37.751811,37.51335 v 25.0089 a 62.919685,62.52225 0 0 0 37.751811,62.52225 1887.5906,1875.6675 0 0 0 503.35748,0 62.919685,62.52225 0 0 0 37.75181,-62.52225 v -25.0089 a 50.335748,50.0178 0 0 0 -37.75181,-37.51335" stroke-width="12.5441" id="path2"/>
</svg>
<svg version="1.1" xmlns:svg="http://www.w3.org/2000/svg" width="600" height="300" xmlns="http://www.w3.org/2000/svg" id="svg2">
 <defs id="defs2"/>
 <path stroke="#32cd32" fill="none" d="m 49.06687,11.452516 a 1887.5906,1875.6675 0 0 0 503.35748,0 V 236.53262 a 1887.5906,1875.6675 0 0 1 -503.35748,0 z" stroke-width="12.5441" id="path1"/>
 <path stroke="#32cd32" fill="none" d="m 49.06687,149.00147 a 50.335748,50.0178 0 0 0 -37.751811,37.51335 v 25.0089 a 62.919685,62.52225 0 0 0 37.751811,62.52225 1887.5906,1875.6675 0 0 0 503.35748,0 62.919685,62.52225 0 0 0 37.75181,-62.52225 v -25.0089 a 50.335748,50.0178 0 0 0 -37.75181,-37.51335" stroke-width="12.5441" id="path2"/>
</svg>
<svg version="1.1" xmlns:svg="http://www.w3.org/2000/svg" width="600" height="300" xmlns="http://www.w3.org/2000/svg" id="svg2">
 <defs id="defs2"/>
 <path stroke="#32cd32" fill="none" d="m 49.06687,11.452516 a 1887.5906,1875.6675 0 0 0 503.35748,0 V 236.53262 a 1887.5906,1875.6675 0 0 1 -503.35748,0 z" stroke-width="12.5441" id="path1"/>
 <path stroke="#32cd32" fill="none" d="m 49.06687,149.00147 a 50.335748,50.0178 0 0 0 -37.751811,37.51335 v 25.0089 a 62.919685,62.52225 0 0 0 37.751811,62.52225 1887.5906,1875.6675 0 0 0 503.35748,0 62.919685,62.52225 0 0 0 37.75181,-62.52225 v -25.0089 a 50.335748,50.0178 0 0 0 -37.75181,-37.51335" stroke-width="12.5441" id="path2"/>
</svg>
<svg version="1.1" xmlns:svg="http://www.w3.org/2000/svg" width="600" height="300" xmlns="http://www.w3.org/2000/svg" id="svg2">
 <defs id="defs2"/>
 <path stroke="#32cd32" fill="none" d="m 49.06687,11.452516 a 1887.5906,1875.6675 0 0 0 503.35748,0 V 236.53262 a 1887.5906,1875.6675 0 0 1 -503.35748,0 z" stroke-width="12.5441" id="path1"/>
 <path stroke="#32cd32" fill="none" d="m 49.06687,149.00147 a 50.335748,50.0178 0 0 0 -37.751811,37.51335 v 25.0089 a 62.919685,62.52225 0 0 0 37.751811,62.52225 1887.5906,1875.6675 0 0 0 503.35748,0 62.919685,62.52225 0 0 0 37.75181,-62.52225 v -25.0089 a 50.335748,50.0178 0 0 0 -37.75181,-37.51335" stroke-width="12.5441" id="path2"/>
</svg>
<svg version="1.1" xmlns:svg="http://www.w3.org/2000/svg" width="600" height="300" xmlns="http://www.w3.org/2000/svg" id="svg2">
 <defs id="defs2"/>
 <path stroke="#32cd32" fill="none" d="m 49.06687,11.452516 a 1887.5906,1875.6675 0 0 0 503.35748,0 V 236.53262 a 1887.5906,1875.6675 0 0 1 -503.35748,0 z" stroke-width="12.5441" id="path1"/>
 <path stroke="#32cd32" fill="none" d="m 49.06687,149.00147 a 50.335748,50.0178 0 0 0 -37.751811,37.51335 v 25.0089 a 62.919685,62.52225 0 0 0 37.751811,62.52225 1887.5906,1875.6675 0 0 0 503.35748,0 62.919685,62.52225 0 0 0 37.75181,-62.52225 v -25.0089 a 50.335748,50.0178 0 0 0 -37.75181,-37.51335" stroke-width="12.5441" id="path2"/>
</svg>
<svg version="1.1" xmlns:svg="http://www.w3.org/2000/svg" width="600" height="300" xmlns="http://www.w3.org/2000/svg" id="svg2">
 <defs id="defs2"/>
 <path stroke="#32cd32" fill="none" d="m 49.06687,11.452516 a 1887.5906,1875.6675 0 0 0 503.35748,0 V 236.53262 a 1887.5906,1875.6675 0 0 1 -503.35748,0 z" stroke-width="12.5441" id="path1"/>
 <path stroke="#32cd32" fill="none" d="m 49.06687,149.00147 a 50.335748,50.0178 0 0 0 -37.751811,37.51335 v 25.0089 a 62.919685,62.52225 0 0 0 37.751811,62.52225 1887.5906,1875.6675 0 0 0 503.35748,0 62.919685,62.52225 0 0 0 37.75181,-62.52225 v -25.0089 a 50.335748,50.0178 0 0 0 -37.75181,-37.51335" stroke-width="12.5441" id="path2"/>
</svg>
<svg version="1.1" xmlns:svg="http://www.w3.org/2000/svg" width="600" height="300" xmlns="http://www.w3.org/2000/svg" id="svg2">
 <defs id="defs2"/>
 <path stroke="#32cd32" fill="none" d="m 49.06687,11.452516 a 1887.5906,1875.6675 0 0 0 503.35748,0 V 236.53262 a 1887.5906,1875.6675 0 0 1 -503.35748,0 z" stroke-width="12.5441" id="path1"/>
 <path stroke="#32cd32" fill="none" d="m 49.06687,149.00147 a 50.335748,50.0178 0 0 0 -37.751811,37.51335 v 25.0089 a 62.919685,62.52225 0 0 0 37.751811,62.52225 1887.5906,1875.6675 0 0 0 503.35748,0 62.919685,62.52225 0 0 0 37.75181,-62.52225 v -25.0089 a 50.335748,50.0178 0 0 0 -37.75181,-37.51335" stroke-width="12.5441" id="path2"/>
</svg>
<svg version="1.1" xmlns:svg="http://www.w3.org/2000/svg" width="600" height="300" xmlns="http://www.w3.org/2000/svg" id="svg2">
 <defs id="defs2"/>
 <path stroke="#32cd32" fill="none" d="m 49.06687,11.452516 a 1887.5906,1875.6675 0 0 0 503.35748,0 V 236.53262 a 1887.5906,1875.6675 0 0 1 -503.35748,0 z" stroke-width="12.5441" id="path1"/>
 <path stroke="#32cd32" fill="none" d="m 49.06687,149.00147 a 50.335748,50.0178 0 0 0 -37.751811,37.51335 v 25.0089 a 62.919685,62.52225 0 0 0 37.751811,62.52225 1887.5906,1875.6675 0 0 0 503.35748,0 62.919685,62.52225 0 0 0 37.75181,-62.52225 v -25.0089 a 50.335748,50.0178 0 0 0 -37.75181,-37.51335" stroke-width="12.5441" id="path2"/>
</svg>
<svg version="1.1" xmlns:svg="http://www.w3.org/2000/svg" width="600" height="300" xmlns="http://www.w3.org/2000/svg" id="svg2">
 <defs id="defs2"/>
 <path stroke="#32cd32" fill="none" d="m 49.06687,11.452516 a 1887.5906,1875.6675 0 0 0 503.35748,0 V 236.53262 a 1887.5906,1875.6675 0 0 1 -503.35748,0 z" stroke-width="12.5441" id="path1"/>
 <path stroke="#32cd32" fill="none" d="m 49.06687,149.00147 a 50.335748,50.0178 0 0 0 -37.751811,37.51335 v 25.0089 a 62.919685,62.52225 0 0 0 37.751811,62.52225 1887.5906,1875.6675 0 0 0 503.35748,0 62.919685,62.52225 0 0 0 37.75181,-62.52225 v -25.0089 a 50.335748,50.0178 0 0 0 -37.75181,-37.51335" stroke-width="12.5441" id="path2"/>
</svg>
<svg version="1.1" xmlns:svg="http://www.w3.org/2000/svg" width="600" height="300" xmlns="http://www.w3.org/2000/svg" id="svg2">
 <defs id="defs2"/>
 <path stroke="#32cd32" fill="none" d="m 49.06687,11.452516 a 1887.5906,1875.6675 0 0 0 503.35748,0 V 236.53262 a 1887.5906,1875.6675 0 0 1 -503.35748,0 z" stroke-width="12.5441" id="path1"/>
 <path stroke="#32cd32" fill="none" d="m 49.06687,149.00147 a 50.335748,50.0178 0 0 0 -37.751811,37.51335 v 25.0089 a 62.919685,62.52225 0 0 0 37.751811,62.52225 1887.5906,1875.6675 0 0 0 503.35748,0 62.919685,62.52225 0 0 0 37.75181,-62.52225 v -25.0089 a 50.335748,50.0178 0 0 0 -37.75181,-37.51335" stroke-width="12.5441" id="path2"/>
</svg>
<svg version="1.1" xmlns:svg="http://www.w3.org/2000/svg" width="600" height="300" xmlns="http://www.w3.org/2000/svg" id="svg2">
 <defs id="defs2"/>
 <path stroke="#32cd32" fill="none" d="m 49.06687,11.452516 a 1887.5906,1875.6675 0 0 0 503.35748,0 V 236.53262 a 1887.5906,1875.6675 0 0 1 -503.35748,0 z" stroke-width="12.5441" id="path1"/>
 <path stroke="#32cd32" fill="none" d="m 49.06687,149.00147 a 50.335748,50.0178 0 0 0 -37.751811,37.51335 v 25.0089 a 62.919685,62.52225 0 0 0 37.751811,62.52225 1887.5906,1875.6675 0 0 0 503.35748,0 62.919685,62.52225 0 0 0 37.75181,-62.52225 v -25.0089 a 50.335748,50.0178 0 0 0 -37.75181,-37.51335" stroke-width="12.5441" id="path2"/>
</svg>
<svg version="1.1" xmlns:svg="http://www.w3.org/2000/svg" width="600" height="300" xmlns="http://www.w3.org/2000/svg" id="svg2">
 <defs id="defs2"/>
 <path stroke="#32cd32" fill="none" d="m 49.06687,11.452516 a 1887.5906,1875.6675 0 0 0 503.35748,0 V 236.53262 a 1887.5906,1875.6675 0 0 1 -503.35748,0 z" stroke-width="12.5441" id="path1"/>
 <path stroke="#32cd32" fill="none" d="m 49.06687,149.00147 a 50.335748,50.0178 0 0 0 -37.751811,37.51335 v 25.0089 a 62.919685,62.52225 0 0 0 37.751811,62.52225 1887.5906,1875.6675 0 0 0 503.35748,0 62.919685,62.52225 0 0 0 37.75181,-62.52225 v -25.0089 a 50.335748,50.0178 0 0 0 -37.75181,-37.51335" stroke-width="12.5441" id="path2"/>
</svg>
<svg version="1.1" xmlns:svg="http://www.w3.org/2000/svg" width="600" height="300" xmlns="http://www.w3.org/2000/svg" id="svg2">
 <defs id="defs2"/>
 <path stroke="#32cd32" fill="none" d="m 49.06687,11.452516 a 1887.5906,1875.6675 0 0 0 503.35748,0 V 236.53262 a 1887.5906,1875.6675 0 0 1 -503.35748,0 z" stroke-width="12.5441" id="path1"/>
 <path stroke="#32cd32" fill="none" d="m 49.06687,149.00147 a 50.335748,50.0178 0 0 0 -37.751811,37.51335 v 25.0089 a 62.919685,62.52225 0 0 0 37.751811,62.52225 1887.5906,1875.6675 0 0 0 503.35748,0 62.919685,62.52225 0 0 0 37.75181,-62.52225 v -25.0089 a 50.335748,50.0178 0 0 0 -37.75181,-37.51335" stroke-width="12.5441" id="path2"/>
</svg>
<svg version="1.1" xmlns:svg="http://www.w3.org/2000/svg" width="600" height="300" xmlns="http://www.w3.org/2000/svg" id="svg2">
 <defs id="defs2"/>
 <path stroke="#32cd32" fill="none" d="m 49.06687,11.452516 a 1887.5906,1875.6675 0 0 0 503.35748,0 V 236.53262 a 1887.5906,1875.6675 0 0 1 -503.35748,0 z" stroke-width="12.5441" id="path1"/>
 <path stroke="#32cd32" fill="none" d="m 49.06687,149.00147 a 50.335748,50.0178 0 0 0 -37.751811,37.51335 v 25.0089 a 62.919685,62.52225 0 0 0 37.751811,62.52225 1887.5906,1875.6675 0 0 0 503.35748,0 62.919685,62.52225 0 0 0 37.75181,-62.52225 v -25.0089 a 50.335748,50.0178 0 0 0 -37.75181,-37.51335" stroke-width="12.5441" id="path2"/>
</svg>
<svg version="1.1" xmlns:svg="http://www.w3.org/2000/svg" width="600" height="300" xmlns="http://www.w3.org/2000/svg" id="svg2">
 <defs id="defs2"/>
 <path stroke="#32cd32" fill="none" d="m 49.06687,11.452516 a 1887.5906,1875.6675 0 0 0 503.35748,0 V 236.53262 a 1887.5906,1875.6675 0 0 1 -503.35748,0 z" stroke-width="12.5441" id="path1"/>
 <path stroke="#32cd32" fill="none" d="m 49.06687,149.00147 a 50.335748,50.0178 0 0 0 -37.751811,37.51335 v 25.0089 a 62.919685,62.52225 0 0 0 37.751811,62.52225 1887.5906,1875.6675 0 0 0 503.35748,0 62.919685,62.52225 0 0 0 37.75181,-62.52225 v -25.0089 a 50.335748,50.0178 0 0 0 -37.75181,-37.51335" stroke-width="12.5441" id="path2"/>
</svg>
<svg version="1.1" xmlns:svg="http://www.w3.org/2000/svg" width="600" height="300" xmlns="http://www.w3.org/2000/svg" id="svg2">
 <defs id="defs2"/>
 <path stroke="#32cd32" fill="none" d="m 49.06687,11.452516 a 1887.5906,1875.6675 0 0 0 503.35748,0 V 236.53262 a 1887.5906,1875.6675 0 0 1 -503.35748,0 z" stroke-width="12.5441" id="path1"/>
 <path stroke="#32cd32" fill="none" d="m 49.06687,149.00147 a 50.335748,50.0178 0 0 0 -37.751811,37.51335 v 25.0089 a 62.919685,62.52225 0 0 0 37.751811,62.52225 1887.5906,1875.6675 0 0 0 503.35748,0 62.919685,62.52225 0 0 0 37.75181,-62.52225 v -25.0089 a 50.335748,50.0178 0 0 0 -37.75181,-37.51335" stroke-width="12.5441" id="path2"/>
</svg>
<svg version="1.1" xmlns:svg="http://www.w3.org/2000/svg" width="600" height="300" xmlns="http://www.w3.org/2000/svg" id="svg2">
 <defs id="defs2"/>
 <path stroke="#32cd32" fill="none" d="m 49.06687,11.452516 a 1887.5906,1875.6675 0 0 0 503.35748,0 V 236.53262 a 1887.5906,1875.6675 0 0 1 -503.35748,0 z" stroke-width="12.5441" id="path1"/>
 <path stroke="#32cd32" fill="none" d="m 49.06687,149.00147 a 50.335748,50.0178 0 0 0 -37.751811,37.51335 v 25.0089 a 62.919685,62.52225 0 0 0 37.751811,62.52225 1887.5906,1875.6675 0 0 0 503.35748,0 62.919685,62.52225 0 0 0 37.75181,-62.52225 v -25.0089 a 50.335748,50.0178 0 0 0 -37.75181,-37.51335" stroke-width="12.5441" id="path2"/>
</svg>
<svg version="1.1" xmlns:svg="http://www.w3.org/2000/svg" width="600" height="300" xmlns="http://www.w3.org/2000/svg" id="svg2">
 <defs id="defs2"/>
 <path stroke="#32cd32" fill="none" d="m 49.06687,11.452516 a 1887.5906,1875.6675 0 0 0 503.35748,0 V 236.53262 a 1887.5906,1875.6675 0 0 1 -503.35748,0 z" stroke-width="12.5441" id="path1"/>
 <path stroke="#32cd32" fill="none" d="m 49.06687,149.00147 a 50.335748,50.0178 0 0 0 -37.751811,37.51335 v 25.0089 a 62.919685,62.52225 0 0 0 37.751811,62.52225 1887.5906,1875.6675 0 0 0 503.35748,0 62.919685,62.52225 0 0 0 37.75181,-62.52225 v -25.0089 a 50.335748,50.0178 0 0 0 -37.75181,-37.51335" stroke-width="12.5441" id="path2"/>
</svg>
<svg version="1.1" xmlns:svg="http://www.w3.org/2000/svg" width="600" height="300" xmlns="http://www.w3.org/2000/svg" id="svg2">
 <defs id="defs2"/>
 <path stroke="#32cd32" fill="none" d="m 49.06687,11.452516 a 1887.5906,1875.6675 0 0 0 503.35748,0 V 236.53262 a 1887.5906,1875.6675 0 0 1 -503.35748,0 z" stroke-width="12.5441" id="path1"/>
 <path stroke="#32cd32" fill="none" d="m 49.06687,149.00147 a 50.335748,50.0178 0 0 0 -37.751811,37.51335 v 25.0089 a 62.919685,62.52225 0 0 0 37.751811,62.52225 1887.5906,1875.6675 0 0 0 503.35748,0 62.919685,62.52225 0 0 0 37.75181,-62.52225 v -25.0089 a 50.335748,50.0178 0 0 0 -37.75181,-37.51335" stroke-width="12.5441" id="path2"/>
</svg>
<svg version="1.1" xmlns:svg="http://www.w3.org/2000/svg" width="600" height="300" xmlns="http://www.w3.org/2000/svg" id="svg2">
 <defs id="defs2"/>
 <path stroke="#32cd32" fill="none" d="m 49.06687,11.452516 a 1887.5906,1875.6675 0 0 0 503.35748,0 V 236.53262 a 1887.5906,1875.6675 0 0 1 -503.35748,0 z" stroke-width="12.5441" id="path1"/>
 <path stroke="#32cd32" fill="none" d="m 49.06687,149.00147 a 50.335748,50.0178 0 0 0 -37.751811,37.51335 v 25.0089 a 62.919685,62.52225 0 0 0 37.751811,62.52225 1887.5906,1875.6675 0 0 0 503.35748,0 62.919685,62.52225 0 0 0 37.75181,-62.52225 v -25.0089 a 50.335748,50.0178 0 0 0 -37.75181,-37.51335" stroke-width="12.5441" id="path2"/>
</svg>
<svg version="1.1" xmlns:svg="http://www.w3.org/2000/svg" width="600" height="300" xmlns="http://www.w3.org/2000/svg" id="svg2">
 <defs id="defs2"/>
 <path stroke="#32cd32" fill="none" d="m 49.06687,11.452516 a 1887.5906,1875.6675 0 0 0 503.35748,0 V 236.53262 a 1887.5906,1875.6675 0 0 1 -503.35748,0 z" stroke-width="12.5441" id="path1"/>
 <path stroke="#32cd32" fill="none" d="m 49.06687,149.00147 a 50.335748,50.0178 0 0 0 -37.751811,37.51335 v 25.0089 a 62.919685,62.52225 0 0 0 37.751811,62.52225 1887.5906,1875.6675 0 0 0 503.35748,0 62.919685,62.52225 0 0 0 37.75181,-62.52225 v -25.0089 a 50.335748,50.0178 0 0 0 -37.75181,-37.51335" stroke-width="12.5441" id="path2"/>
</svg>
<svg version="1.1" xmlns:svg="http://www.w3.org/2000/svg" width="600" height="300" xmlns="http://www.w3.org/2000/svg" id="svg2">
 <defs id="defs2"/>
 <path stroke="#32cd32" fill="none" d="m 49.06687,11.452516 a 1887.5906,1875.6675 0 0 0 503.35748,0 V 236.53262 a 1887.5906,1875.6675 0 0 1 -503.35748,0 z" stroke-width="12.5441" id="path1"/>
 <path stroke="#32cd32" fill="none" d="m 49.06687,149.00147 a 50.335748,50.0178 0 0 0 -37.751811,37.51335 v 25.0089 a 62.919685,62.52225 0 0 0 37.751811,62.52225 1887.5906,1875.6675 0 0 0 503.35748,0 62.919685,62.52225 0 0 0 37.75181,-62.52225 v -25.0089 a 50.335748,50.0178 0 0 0 -37.75181,-37.51335" stroke-width="12.5441" id="path2"/>
</svg>
<svg version="1.1" xmlns:svg="http://www.w3.org/2000/svg" width="600" height="300" xmlns="http://www.w3.org/2000/svg" id="svg2">
 <defs id="defs2"/>
 <path stroke="#32cd32" fill="none" d="m 49.06687,11.452516 a 1887.5906,1875.6675 0 0 0 503.35748,0 V 236.53262 a 1887.5906,1875.6675 0 0 1 -503.35748,0 z" stroke-width="12.5441" id="path1"/>
 <path stroke="#32cd32" fill="none" d="m 49.06687,149.00147 a 50.335748,50.0178 0 0 0 -37.751811,37.51335 v 25.0089 a 62.919685,62.52225 0 0 0 37.751811,62.52225 1887.5906,1875.6675 0 0 0 503.35748,0 62.919685,62.52225 0 0 0 37.75181,-62.52225 v -25.0089 a 50.335748,50.0178 0 0 0 -37.75181,-37.51335" stroke-width="12.5441" id="path2"/>
</svg>
<svg version="1.1" xmlns:svg="http://www.w3.org/2000/svg" width="600" height="300" xmlns="http://www.w3.org/2000/svg" id="svg2">
 <defs id="defs2"/>
 <path stroke="#32cd32" fill="none" d="m 49.06687,11.452516 a 1887.5906,1875.6675 0 0 0 503.35748,0 V 236.53262 a 1887.5906,1875.6675 0 0 1 -503.35748,0 z" stroke-width="12.5441" id="path1"/>
 <path stroke="#32cd32" fill="none" d="m 49.06687,149.00147 a 50.335748,50.0178 0 0 0 -37.751811,37.51335 v 25.0089 a 62.919685,62.52225 0 0 0 37.751811,62.52225 1887.5906,1875.6675 0 0 0 503.35748,0 62.919685,62.52225 0 0 0 37.75181,-62.52225 v -25.0089 a 50.335748,50.0178 0 0 0 -37.75181,-37.51335" stroke-width="12.5441" id="path2"/>
</svg>
<svg version="1.1" xmlns:svg="http://www.w3.org/2000/svg" width="600" height="300" xmlns="http://www.w3.org/2000/svg" id="svg2">
 <defs id="defs2"/>
 <path stroke="#32cd32" fill="none" d="m 49.06687,11.452516 a 1887.5906,1875.6675 0 0 0 503.35748,0 V 236.53262 a 1887.5906,1875.6675 0 0 1 -503.35748,0 z" stroke-width="12.5441" id="path1"/>
 <path stroke="#32cd32" fill="none" d="m 49.06687,149.00147 a 50.335748,50.0178 0 0 0 -37.751811,37.51335 v 25.0089 a 62.919685,62.52225 0 0 0 37.751811,62.52225 1887.5906,1875.6675 0 0 0 503.35748,0 62.919685,62.52225 0 0 0 37.75181,-62.52225 v -25.0089 a 50.335748,50.0178 0 0 0 -37.75181,-37.51335" stroke-width="12.5441" id="path2"/>
</svg>
<svg version="1.1" xmlns:svg="http://www.w3.org/2000/svg" width="600" height="300" xmlns="http://www.w3.org/2000/svg" id="svg2">
 <defs id="defs2"/>
 <path stroke="#32cd32" fill="none" d="m 49.06687,11.452516 a 1887.5906,1875.6675 0 0 0 503.35748,0 V 236.53262 a 1887.5906,1875.6675 0 0 1 -503.35748,0 z" stroke-width="12.5441" id="path1"/>
 <path stroke="#32cd32" fill="none" d="m 49.06687,149.00147 a 50.335748,50.0178 0 0 0 -37.751811,37.51335 v 25.0089 a 62.919685,62.52225 0 0 0 37.751811,62.52225 1887.5906,1875.6675 0 0 0 503.35748,0 62.919685,62.52225 0 0 0 37.75181,-62.52225 v -25.0089 a 50.335748,50.0178 0 0 0 -37.75181,-37.51335" stroke-width="12.5441" id="path2"/>
</svg>
<svg version="1.1" xmlns:svg="http://www.w3.org/2000/svg" width="600" height="300" xmlns="http://www.w3.org/2000/svg" id="svg2">
 <defs id="defs2"/>
 <path stroke="#32cd32" fill="none" d="m 49.06687,11.452516 a 1887.5906,1875.6675 0 0 0 503.35748,0 V 236.53262 a 1887.5906,1875.6675 0 0 1 -503.35748,0 z" stroke-width="12.5441" id="path1"/>
 <path stroke="#32cd32" fill="none" d="m 49.06687,149.00147 a 50.335748,50.0178 0 0 0 -37.751811,37.51335 v 25.0089 a 62.919685,62.52225 0 0 0 37.751811,62.52225 1887.5906,1875.6675 0 0 0 503.35748,0 62.919685,62.52225 0 0 0 37.75181,-62.52225 v -25.0089 a 50.335748,50.0178 0 0 0 -37.75181,-37.51335" stroke-width="12.5441" id="path2"/>
</svg>
<svg version="1.1" xmlns:svg="http://www.w3.org/2000/svg" width="600" height="300" xmlns="http://www.w3.org/2000/svg" id="svg2">
 <defs id="defs2"/>
 <path stroke="#32cd32" fill="none" d="m 49.06687,11.452516 a 1887.5906,1875.6675 0 0 0 503.35748,0 V 236.53262 a 1887.5906,1875.6675 0 0 1 -503.35748,0 z" stroke-width="12.5441" id="path1"/>
 <path stroke="#32cd32" fill="none" d="m 49.06687,149.00147 a 50.335748,50.0178 0 0 0 -37.751811,37.51335 v 25.0089 a 62.919685,62.52225 0 0 0 37.751811,62.52225 1887.5906,1875.6675 0 0 0 503.35748,0 62.919685,62.52225 0 0 0 37.75181,-62.52225 v -25.0089 a 50.335748,50.0178 0 0 0 -37.75181,-37.51335" stroke-width="12.5441" id="path2"/>
</svg>
<svg version="1.1" xmlns:svg="http://www.w3.org/2000/svg" width="600" height="300" xmlns="http://www.w3.org/2000/svg" id="svg2">
 <defs id="defs2"/>
 <path stroke="#32cd32" fill="none" d="m 49.06687,11.452516 a 1887.5906,1875.6675 0 0 0 503.35748,0 V 236.53262 a 1887.5906,1875.6675 0 0 1 -503.35748,0 z" stroke-width="12.5441" id="path1"/>
 <path stroke="#32cd32" fill="none" d="m 49.06687,149.00147 a 50.335748,50.0178 0 0 0 -37.751811,37.51335 v 25.0089 a 62.919685,62.52225 0 0 0 37.751811,62.52225 1887.5906,1875.6675 0 0 0 503.35748,0 62.919685,62.52225 0 0 0 37.75181,-62.52225 v -25.0089 a 50.335748,50.0178 0 0 0 -37.75181,-37.51335" stroke-width="12.5441" id="path2"/>
</svg>
<svg version="1.1" xmlns:svg="http://www.w3.org/2000/svg" width="600" height="300" xmlns="http://www.w3.org/2000/svg" id="svg2">
 <defs id="defs2"/>
 <path stroke="#32cd32" fill="none" d="m 49.06687,11.452516 a 1887.5906,1875.6675 0 0 0 503.35748,0 V 236.53262 a 1887.5906,1875.6675 0 0 1 -503.35748,0 z" stroke-width="12.5441" id="path1"/>
 <path stroke="#32cd32" fill="none" d="m 49.06687,149.00147 a 50.335748,50.0178 0 0 0 -37.751811,37.51335 v 25.0089 a 62.919685,62.52225 0 0 0 37.751811,62.52225 1887.5906,1875.6675 0 0 0 503.35748,0 62.919685,62.52225 0 0 0 37.75181,-62.52225 v -25.0089 a 50.335748,50.0178 0 0 0 -37.75181,-37.51335" stroke-width="12.5441" id="path2"/>
</svg>
<svg version="1.1" xmlns:svg="http://www.w3.org/2000/svg" width="600" height="300" xmlns="http://www.w3.org/2000/svg" id="svg2">
 <defs id="defs2"/>
 <path stroke="#32cd32" fill="none" d="m 49.06687,11.452516 a 1887.5906,1875.6675 0 0 0 503.35748,0 V 236.53262 a 1887.5906,1875.6675 0 0 1 -503.35748,0 z" stroke-width="12.5441" id="path1"/>
 <path stroke="#32cd32" fill="none" d="m 49.06687,149.00147 a 50.335748,50.0178 0 0 0 -37.751811,37.51335 v 25.0089 a 62.919685,62.52225 0 0 0 37.751811,62.52225 1887.5906,1875.6675 0 0 0 503.35748,0 62.919685,62.52225 0 0 0 37.75181,-62.52225 v -25.0089 a 50.335748,50.0178 0 0 0 -37.75181,-37.51335" stroke-width="12.5441" id="path2"/>
</svg>
<svg version="1.1" xmlns:svg="http://www.w3.org/2000/svg" width="600" height="300" xmlns="http://www.w3.org/2000/svg" id="svg2">
 <defs id="defs2"/>
 <path stroke="#32cd32" fill="none" d="m 49.06687,11.452516 a 1887.5906,1875.6675 0 0 0 503.35748,0 V 236.53262 a 1887.5906,1875.6675 0 0 1 -503.35748,0 z" stroke-width="12.5441" id="path1"/>
 <path stroke="#32cd32" fill="none" d="m 49.06687,149.00147 a 50.335748,50.0178 0 0 0 -37.751811,37.51335 v 25.0089 a 62.919685,62.52225 0 0 0 37.751811,62.52225 1887.5906,1875.6675 0 0 0 503.35748,0 62.919685,62.52225 0 0 0 37.75181,-62.52225 v -25.0089 a 50.335748,50.0178 0 0 0 -37.75181,-37.51335" stroke-width="12.5441" id="path2"/>
</svg>
<svg version="1.1" xmlns:svg="http://www.w3.org/2000/svg" width="600" height="300" xmlns="http://www.w3.org/2000/svg" id="svg2">
 <defs id="defs2"/>
 <path stroke="#32cd32" fill="none" d="m 49.06687,11.452516 a 1887.5906,1875.6675 0 0 0 503.35748,0 V 236.53262 a 1887.5906,1875.6675 0 0 1 -503.35748,0 z" stroke-width="12.5441" id="path1"/>
 <path stroke="#32cd32" fill="none" d="m 49.06687,149.00147 a 50.335748,50.0178 0 0 0 -37.751811,37.51335 v 25.0089 a 62.919685,62.52225 0 0 0 37.751811,62.52225 1887.5906,1875.6675 0 0 0 503.35748,0 62.919685,62.52225 0 0 0 37.75181,-62.52225 v -25.0089 a 50.335748,50.0178 0 0 0 -37.75181,-37.51335" stroke-width="12.5441" id="path2"/>
</svg>
<svg version="1.1" xmlns:svg="http://www.w3.org/2000/svg" width="600" height="300" xmlns="http://www.w3.org/2000/svg" id="svg2">
 <defs id="defs2"/>
 <path stroke="#32cd32" fill="none" d="m 49.06687,11.452516 a 1887.5906,1875.6675 0 0 0 503.35748,0 V 236.53262 a 1887.5906,1875.6675 0 0 1 -503.35748,0 z" stroke-width="12.5441" id="path1"/>
 <path stroke="#32cd32" fill="none" d="m 49.06687,149.00147 a 50.335748,50.0178 0 0 0 -37.751811,37.51335 v 25.0089 a 62.919685,62.52225 0 0 0 37.751811,62.52225 1887.5906,1875.6675 0 0 0 503.35748,0 62.919685,62.52225 0 0 0 37.75181,-62.52225 v -25.0089 a 50.335748,50.0178 0 0 0 -37.75181,-37.51335" stroke-width="12.5441" id="path2"/>
</svg>
<svg version="1.1" xmlns:svg="http://www.w3.org/2000/svg" width="600" height="300" xmlns="http://www.w3.org/2000/svg" id="svg2">
 <defs id="defs2"/>
 <path stroke="#32cd32" fill="none" d="m 49.06687,11.452516 a 1887.5906,1875.6675 0 0 0 503.35748,0 V 236.53262 a 1887.5906,1875.6675 0 0 1 -503.35748,0 z" stroke-width="12.5441" id="path1"/>
 <path stroke="#32cd32" fill="none" d="m 49.06687,149.00147 a 50.335748,50.0178 0 0 0 -37.751811,37.51335 v 25.0089 a 62.919685,62.52225 0 0 0 37.751811,62.52225 1887.5906,1875.6675 0 0 0 503.35748,0 62.919685,62.52225 0 0 0 37.75181,-62.52225 v -25.0089 a 50.335748,50.0178 0 0 0 -37.75181,-37.51335" stroke-width="12.5441" id="path2"/>
</svg>
<svg version="1.1" xmlns:svg="http://www.w3.org/2000/svg" width="600" height="300" xmlns="http://www.w3.org/2000/svg" id="svg2">
 <defs id="defs2"/>
 <path stroke="#32cd32" fill="none" d="m 49.06687,11.452516 a 1887.5906,1875.6675 0 0 0 503.35748,0 V 236.53262 a 1887.5906,1875.6675 0 0 1 -503.35748,0 z" stroke-width="12.5441" id="path1"/>
 <path stroke="#32cd32" fill="none" d="m 49.06687,149.00147 a 50.335748,50.0178 0 0 0 -37.751811,37.51335 v 25.0089 a 62.919685,62.52225 0 0 0 37.751811,62.52225 1887.5906,1875.6675 0 0 0 503.35748,0 62.919685,62.52225 0 0 0 37.75181,-62.52225 v -25.0089 a 50.335748,50.0178 0 0 0 -37.75181,-37.51335" stroke-width="12.5441" id="path2"/>
</svg>
<svg version="1.1" xmlns:svg="http://www.w3.org/2000/svg" width="600" height="300" xmlns="http://www.w3.org/2000/svg" id="svg2">
 <defs id="defs2"/>
 <path stroke="#32cd32" fill="none" d="m 49.06687,11.452516 a 1887.5906,1875.6675 0 0 0 503.35748,0 V 236.53262 a 1887.5906,1875.6675 0 0 1 -503.35748,0 z" stroke-width="12.5441" id="path1"/>
 <path stroke="#32cd32" fill="none" d="m 49.06687,149.00147 a 50.335748,50.0178 0 0 0 -37.751811,37.51335 v 25.0089 a 62.919685,62.52225 0 0 0 37.751811,62.52225 1887.5906,1875.6675 0 0 0 503.35748,0 62.919685,62.52225 0 0 0 37.75181,-62.52225 v -25.0089 a 50.335748,50.0178 0 0 0 -37.75181,-37.51335" stroke-width="12.5441" id="path2"/>
</svg>
<svg version="1.1" xmlns:svg="http://www.w3.org/2000/svg" width="600" height="300" xmlns="http://www.w3.org/2000/svg" id="svg2">
 <defs id="defs2"/>
 <path stroke="#32cd32" fill="none" d="m 49.06687,11.452516 a 1887.5906,1875.6675 0 0 0 503.35748,0 V 236.53262 a 1887.5906,1875.6675 0 0 1 -503.35748,0 z" stroke-width="12.5441" id="path1"/>
 <path stroke="#32cd32" fill="none" d="m 49.06687,149.00147 a 50.335748,50.0178 0 0 0 -37.751811,37.51335 v 25.0089 a 62.919685,62.52225 0 0 0 37.751811,62.52225 1887.5906,1875.6675 0 0 0 503.35748,0 62.919685,62.52225 0 0 0 37.75181,-62.52225 v -25.0089 a 50.335748,50.0178 0 0 0 -37.75181,-37.51335" stroke-width="12.5441" id="path2"/>
</svg>
<svg version="1.1" xmlns:svg="http://www.w3.org/2000/svg" width="600" height="300" xmlns="http://www.w3.org/2000/svg" id="svg2">
 <defs id="defs2"/>
 <path stroke="#32cd32" fill="none" d="m 49.06687,11.452516 a 1887.5906,1875.6675 0 0 0 503.35748,0 V 236.53262 a 1887.5906,1875.6675 0 0 1 -503.35748,0 z" stroke-width="12.5441" id="path1"/>
 <path stroke="#32cd32" fill="none" d="m 49.06687,149.00147 a 50.335748,50.0178 0 0 0 -37.751811,37.51335 v 25.0089 a 62.919685,62.52225 0 0 0 37.751811,62.52225 1887.5906,1875.6675 0 0 0 503.35748,0 62.919685,62.52225 0 0 0 37.75181,-62.52225 v -25.0089 a 50.335748,50.0178 0 0 0 -37.75181,-37.51335" stroke-width="12.5441" id="path2"/>
</svg>
<svg version="1.1" xmlns:svg="http://www.w3.org/2000/svg" width="600" height="300" xmlns="http://www.w3.org/2000/svg" id="svg2">
 <defs id="defs2"/>
 <path stroke="#32cd32" fill="none" d="m 49.06687,11.452516 a 1887.5906,1875.6675 0 0 0 503.35748,0 V 236.53262 a 1887.5906,1875.6675 0 0 1 -503.35748,0 z" stroke-width="12.5441" id="path1"/>
 <path stroke="#32cd32" fill="none" d="m 49.06687,149.00147 a 50.335748,50.0178 0 0 0 -37.751811,37.51335 v 25.0089 a 62.919685,62.52225 0 0 0 37.751811,62.52225 1887.5906,1875.6675 0 0 0 503.35748,0 62.919685,62.52225 0 0 0 37.75181,-62.52225 v -25.0089 a 50.335748,50.0178 0 0 0 -37.75181,-37.51335" stroke-width="12.5441" id="path2"/>
</svg>
<svg version="1.1" xmlns:svg="http://www.w3.org/2000/svg" width="600" height="300" xmlns="http://www.w3.org/2000/svg" id="svg2">
 <defs id="defs2"/>
 <path stroke="#32cd32" fill="none" d="m 49.06687,11.452516 a 1887.5906,1875.6675 0 0 0 503.35748,0 V 236.53262 a 1887.5906,1875.6675 0 0 1 -503.35748,0 z" stroke-width="12.5441" id="path1"/>
 <path stroke="#32cd32" fill="none" d="m 49.06687,149.00147 a 50.335748,50.0178 0 0 0 -37.751811,37.51335 v 25.0089 a 62.919685,62.52225 0 0 0 37.751811,62.52225 1887.5906,1875.6675 0 0 0 503.35748,0 62.919685,62.52225 0 0 0 37.75181,-62.52225 v -25.0089 a 50.335748,50.0178 0 0 0 -37.75181,-37.51335" stroke-width="12.5441" id="path2"/>
</svg>
<svg version="1.1" xmlns:svg="http://www.w3.org/2000/svg" width="600" height="300" xmlns="http://www.w3.org/2000/svg" id="svg2">
 <defs id="defs2"/>
 <path stroke="#32cd32" fill="none" d="m 49.06687,11.452516 a 1887.5906,1875.6675 0 0 0 503.35748,0 V 236.53262 a 1887.5906,1875.6675 0 0 1 -503.35748,0 z" stroke-width="12.5441" id="path1"/>
 <path stroke="#32cd32" fill="none" d="m 49.06687,149.00147 a 50.335748,50.0178 0 0 0 -37.751811,37.51335 v 25.0089 a 62.919685,62.52225 0 0 0 37.751811,62.52225 1887.5906,1875.6675 0 0 0 503.35748,0 62.919685,62.52225 0 0 0 37.75181,-62.52225 v -25.0089 a 50.335748,50.0178 0 0 0 -37.75181,-37.51335" stroke-width="12.5441" id="path2"/>
</svg>
<svg version="1.1" xmlns:svg="http://www.w3.org/2000/svg" width="600" height="300" xmlns="http://www.w3.org/2000/svg" id="svg2">
 <defs id="defs2"/>
 <path stroke="#32cd32" fill="none" d="m 49.06687,11.452516 a 1887.5906,1875.6675 0 0 0 503.35748,0 V 236.53262 a 1887.5906,1875.6675 0 0 1 -503.35748,0 z" stroke-width="12.5441" id="path1"/>
 <path stroke="#32cd32" fill="none" d="m 49.06687,149.00147 a 50.335748,50.0178 0 0 0 -37.751811,37.51335 v 25.0089 a 62.919685,62.52225 0 0 0 37.751811,62.52225 1887.5906,1875.6675 0 0 0 503.35748,0 62.919685,62.52225 0 0 0 37.75181,-62.52225 v -25.0089 a 50.335748,50.0178 0 0 0 -37.75181,-37.51335" stroke-width="12.5441" id="path2"/>
</svg>
<svg version="1.1" xmlns:svg="http://www.w3.org/2000/svg" width="600" height="300" xmlns="http://www.w3.org/2000/svg" id="svg2">
 <defs id="defs2"/>
 <path stroke="#32cd32" fill="none" d="m 49.06687,11.452516 a 1887.5906,1875.6675 0 0 0 503.35748,0 V 236.53262 a 1887.5906,1875.6675 0 0 1 -503.35748,0 z" stroke-width="12.5441" id="path1"/>
 <path stroke="#32cd32" fill="none" d="m 49.06687,149.00147 a 50.335748,50.0178 0 0 0 -37.751811,37.51335 v 25.0089 a 62.919685,62.52225 0 0 0 37.751811,62.52225 1887.5906,1875.6675 0 0 0 503.35748,0 62.919685,62.52225 0 0 0 37.75181,-62.52225 v -25.0089 a 50.335748,50.0178 0 0 0 -37.75181,-37.51335" stroke-width="12.5441" id="path2"/>
</svg>
<svg version="1.1" xmlns:svg="http://www.w3.org/2000/svg" width="600" height="300" xmlns="http://www.w3.org/2000/svg" id="svg2">
 <defs id="defs2"/>
 <path stroke="#32cd32" fill="none" d="m 49.06687,11.452516 a 1887.5906,1875.6675 0 0 0 503.35748,0 V 236.53262 a 1887.5906,1875.6675 0 0 1 -503.35748,0 z" stroke-width="12.5441" id="path1"/>
 <path stroke="#32cd32" fill="none" d="m 49.06687,149.00147 a 50.335748,50.0178 0 0 0 -37.751811,37.51335 v 25.0089 a 62.919685,62.52225 0 0 0 37.751811,62.52225 1887.5906,1875.6675 0 0 0 503.35748,0 62.919685,62.52225 0 0 0 37.75181,-62.52225 v -25.0089 a 50.335748,50.0178 0 0 0 -37.75181,-37.51335" stroke-width="12.5441" id="path2"/>
</svg>
<svg version="1.1" xmlns:svg="http://www.w3.org/2000/svg" width="600" height="300" xmlns="http://www.w3.org/2000/svg" id="svg2">
 <defs id="defs2"/>
 <path stroke="#32cd32" fill="none" d="m 49.06687,11.452516 a 1887.5906,1875.6675 0 0 0 503.35748,0 V 236.53262 a 1887.5906,1875.6675 0 0 1 -503.35748,0 z" stroke-width="12.5441" id="path1"/>
 <path stroke="#32cd32" fill="none" d="m 49.06687,149.00147 a 50.335748,50.0178 0 0 0 -37.751811,37.51335 v 25.0089 a 62.919685,62.52225 0 0 0 37.751811,62.52225 1887.5906,1875.6675 0 0 0 503.35748,0 62.919685,62.52225 0 0 0 37.75181,-62.52225 v -25.0089 a 50.335748,50.0178 0 0 0 -37.75181,-37.51335" stroke-width="12.5441" id="path2"/>
</svg>
<svg version="1.1" xmlns:svg="http://www.w3.org/2000/svg" width="600" height="300" xmlns="http://www.w3.org/2000/svg" id="svg2">
 <defs id="defs2"/>
 <path stroke="#32cd32" fill="none" d="m 49.06687,11.452516 a 1887.5906,1875.6675 0 0 0 503.35748,0 V 236.53262 a 1887.5906,1875.6675 0 0 1 -503.35748,0 z" stroke-width="12.5441" id="path1"/>
 <path stroke="#32cd32" fill="none" d="m 49.06687,149.00147 a 50.335748,50.0178 0 0 0 -37.751811,37.51335 v 25.0089 a 62.919685,62.52225 0 0 0 37.751811,62.52225 1887.5906,1875.6675 0 0 0 503.35748,0 62.919685,62.52225 0 0 0 37.75181,-62.52225 v -25.0089 a 50.335748,50.0178 0 0 0 -37.75181,-37.51335" stroke-width="12.5441" id="path2"/>
</svg>
<svg version="1.1" xmlns:svg="http://www.w3.org/2000/svg" width="600" height="300" xmlns="http://www.w3.org/2000/svg" id="svg2">
 <defs id="defs2"/>
 <path stroke="#32cd32" fill="none" d="m 49.06687,11.452516 a 1887.5906,1875.6675 0 0 0 503.35748,0 V 236.53262 a 1887.5906,1875.6675 0 0 1 -503.35748,0 z" stroke-width="12.5441" id="path1"/>
 <path stroke="#32cd32" fill="none" d="m 49.06687,149.00147 a 50.335748,50.0178 0 0 0 -37.751811,37.51335 v 25.0089 a 62.919685,62.52225 0 0 0 37.751811,62.52225 1887.5906,1875.6675 0 0 0 503.35748,0 62.919685,62.52225 0 0 0 37.75181,-62.52225 v -25.0089 a 50.335748,50.0178 0 0 0 -37.75181,-37.51335" stroke-width="12.5441" id="path2"/>
</svg>
<svg version="1.1" xmlns:svg="http://www.w3.org/2000/svg" width="600" height="300" xmlns="http://www.w3.org/2000/svg" id="svg2">
 <defs id="defs2"/>
 <path stroke="#32cd32" fill="none" d="m 49.06687,11.452516 a 1887.5906,1875.6675 0 0 0 503.35748,0 V 236.53262 a 1887.5906,1875.6675 0 0 1 -503.35748,0 z" stroke-width="12.5441" id="path1"/>
 <path stroke="#32cd32" fill="none" d="m 49.06687,149.00147 a 50.335748,50.0178 0 0 0 -37.751811,37.51335 v 25.0089 a 62.919685,62.52225 0 0 0 37.751811,62.52225 1887.5906,1875.6675 0 0 0 503.35748,0 62.919685,62.52225 0 0 0 37.75181,-62.52225 v -25.0089 a 50.335748,50.0178 0 0 0 -37.75181,-37.51335" stroke-width="12.5441" id="path2"/>
</svg>
<svg version="1.1" xmlns:svg="http://www.w3.org/2000/svg" width="600" height="300" xmlns="http://www.w3.org/2000/svg" id="svg2">
 <defs id="defs2"/>
 <path stroke="#32cd32" fill="none" d="m 49.06687,11.452516 a 1887.5906,1875.6675 0 0 0 503.35748,0 V 236.53262 a 1887.5906,1875.6675 0 0 1 -503.35748,0 z" stroke-width="12.5441" id="path1"/>
 <path stroke="#32cd32" fill="none" d="m 49.06687,149.00147 a 50.335748,50.0178 0 0 0 -37.751811,37.51335 v 25.0089 a 62.919685,62.52225 0 0 0 37.751811,62.52225 1887.5906,1875.6675 0 0 0 503.35748,0 62.919685,62.52225 0 0 0 37.75181,-62.52225 v -25.0089 a 50.335748,50.0178 0 0 0 -37.75181,-37.51335" stroke-width="12.5441" id="path2"/>
</svg>
<svg version="1.1" xmlns:svg="http://www.w3.org/2000/svg" width="600" height="300" xmlns="http://www.w3.org/2000/svg" id="svg2">
 <defs id="defs2"/>
 <path stroke="#32cd32" fill="none" d="m 49.06687,11.452516 a 1887.5906,1875.6675 0 0 0 503.35748,0 V 236.53262 a 1887.5906,1875.6675 0 0 1 -503.35748,0 z" stroke-width="12.5441" id="path1"/>
 <path stroke="#32cd32" fill="none" d="m 49.06687,149.00147 a 50.335748,50.0178 0 0 0 -37.751811,37.51335 v 25.0089 a 62.919685,62.52225 0 0 0 37.751811,62.52225 1887.5906,1875.6675 0 0 0 503.35748,0 62.919685,62.52225 0 0 0 37.75181,-62.52225 v -25.0089 a 50.335748,50.0178 0 0 0 -37.75181,-37.51335" stroke-width="12.5441" id="path2"/>
</svg>
<svg version="1.1" xmlns:svg="http://www.w3.org/2000/svg" width="600" height="300" xmlns="http://www.w3.org/2000/svg" id="svg2">
 <defs id="defs2"/>
 <path stroke="#32cd32" fill="none" d="m 49.06687,11.452516 a 1887.5906,1875.6675 0 0 0 503.35748,0 V 236.53262 a 1887.5906,1875.6675 0 0 1 -503.35748,0 z" stroke-width="12.5441" id="path1"/>
 <path stroke="#32cd32" fill="none" d="m 49.06687,149.00147 a 50.335748,50.0178 0 0 0 -37.751811,37.51335 v 25.0089 a 62.919685,62.52225 0 0 0 37.751811,62.52225 1887.5906,1875.6675 0 0 0 503.35748,0 62.919685,62.52225 0 0 0 37.75181,-62.52225 v -25.0089 a 50.335748,50.0178 0 0 0 -37.75181,-37.51335" stroke-width="12.5441" id="path2"/>
</svg>
<svg version="1.1" xmlns:svg="http://www.w3.org/2000/svg" width="600" height="300" xmlns="http://www.w3.org/2000/svg" id="svg2">
 <defs id="defs2"/>
 <path stroke="#32cd32" fill="none" d="m 49.06687,11.452516 a 1887.5906,1875.6675 0 0 0 503.35748,0 V 236.53262 a 1887.5906,1875.6675 0 0 1 -503.35748,0 z" stroke-width="12.5441" id="path1"/>
 <path stroke="#32cd32" fill="none" d="m 49.06687,149.00147 a 50.335748,50.0178 0 0 0 -37.751811,37.51335 v 25.0089 a 62.919685,62.52225 0 0 0 37.751811,62.52225 1887.5906,1875.6675 0 0 0 503.35748,0 62.919685,62.52225 0 0 0 37.75181,-62.52225 v -25.0089 a 50.335748,50.0178 0 0 0 -37.75181,-37.51335" stroke-width="12.5441" id="path2"/>
</svg>
<svg version="1.1" xmlns:svg="http://www.w3.org/2000/svg" width="600" height="300" xmlns="http://www.w3.org/2000/svg" id="svg2">
 <defs id="defs2"/>
 <path stroke="#32cd32" fill="none" d="m 49.06687,11.452516 a 1887.5906,1875.6675 0 0 0 503.35748,0 V 236.53262 a 1887.5906,1875.6675 0 0 1 -503.35748,0 z" stroke-width="12.5441" id="path1"/>
 <path stroke="#32cd32" fill="none" d="m 49.06687,149.00147 a 50.335748,50.0178 0 0 0 -37.751811,37.51335 v 25.0089 a 62.919685,62.52225 0 0 0 37.751811,62.52225 1887.5906,1875.6675 0 0 0 503.35748,0 62.919685,62.52225 0 0 0 37.75181,-62.52225 v -25.0089 a 50.335748,50.0178 0 0 0 -37.75181,-37.51335" stroke-width="12.5441" id="path2"/>
</svg>
<svg version="1.1" xmlns:svg="http://www.w3.org/2000/svg" width="600" height="300" xmlns="http://www.w3.org/2000/svg" id="svg2">
 <defs id="defs2"/>
 <path stroke="#32cd32" fill="none" d="m 49.06687,11.452516 a 1887.5906,1875.6675 0 0 0 503.35748,0 V 236.53262 a 1887.5906,1875.6675 0 0 1 -503.35748,0 z" stroke-width="12.5441" id="path1"/>
 <path stroke="#32cd32" fill="none" d="m 49.06687,149.00147 a 50.335748,50.0178 0 0 0 -37.751811,37.51335 v 25.0089 a 62.919685,62.52225 0 0 0 37.751811,62.52225 1887.5906,1875.6675 0 0 0 503.35748,0 62.919685,62.52225 0 0 0 37.75181,-62.52225 v -25.0089 a 50.335748,50.0178 0 0 0 -37.75181,-37.51335" stroke-width="12.5441" id="path2"/>
</svg>
<svg version="1.1" xmlns:svg="http://www.w3.org/2000/svg" width="600" height="300" xmlns="http://www.w3.org/2000/svg" id="svg2">
 <defs id="defs2"/>
 <path stroke="#32cd32" fill="none" d="m 49.06687,11.452516 a 1887.5906,1875.6675 0 0 0 503.35748,0 V 236.53262 a 1887.5906,1875.6675 0 0 1 -503.35748,0 z" stroke-width="12.5441" id="path1"/>
 <path stroke="#32cd32" fill="none" d="m 49.06687,149.00147 a 50.335748,50.0178 0 0 0 -37.751811,37.51335 v 25.0089 a 62.919685,62.52225 0 0 0 37.751811,62.52225 1887.5906,1875.6675 0 0 0 503.35748,0 62.919685,62.52225 0 0 0 37.75181,-62.52225 v -25.0089 a 50.335748,50.0178 0 0 0 -37.75181,-37.51335" stroke-width="12.5441" id="path2"/>
</svg>
<svg version="1.1" xmlns:svg="http://www.w3.org/2000/svg" width="600" height="300" xmlns="http://www.w3.org/2000/svg" id="svg2">
 <defs id="defs2"/>
 <path stroke="#32cd32" fill="none" d="m 49.06687,11.452516 a 1887.5906,1875.6675 0 0 0 503.35748,0 V 236.53262 a 1887.5906,1875.6675 0 0 1 -503.35748,0 z" stroke-width="12.5441" id="path1"/>
 <path stroke="#32cd32" fill="none" d="m 49.06687,149.00147 a 50.335748,50.0178 0 0 0 -37.751811,37.51335 v 25.0089 a 62.919685,62.52225 0 0 0 37.751811,62.52225 1887.5906,1875.6675 0 0 0 503.35748,0 62.919685,62.52225 0 0 0 37.75181,-62.52225 v -25.0089 a 50.335748,50.0178 0 0 0 -37.75181,-37.51335" stroke-width="12.5441" id="path2"/>
</svg>
<svg version="1.1" xmlns:svg="http://www.w3.org/2000/svg" width="600" height="300" xmlns="http://www.w3.org/2000/svg" id="svg2">
 <defs id="defs2"/>
 <path stroke="#32cd32" fill="none" d="m 49.06687,11.452516 a 1887.5906,1875.6675 0 0 0 503.35748,0 V 236.53262 a 1887.5906,1875.6675 0 0 1 -503.35748,0 z" stroke-width="12.5441" id="path1"/>
 <path stroke="#32cd32" fill="none" d="m 49.06687,149.00147 a 50.335748,50.0178 0 0 0 -37.751811,37.51335 v 25.0089 a 62.919685,62.52225 0 0 0 37.751811,62.52225 1887.5906,1875.6675 0 0 0 503.35748,0 62.919685,62.52225 0 0 0 37.75181,-62.52225 v -25.0089 a 50.335748,50.0178 0 0 0 -37.75181,-37.51335" stroke-width="12.5441" id="path2"/>
</svg>
<svg version="1.1" xmlns:svg="http://www.w3.org/2000/svg" width="600" height="300" xmlns="http://www.w3.org/2000/svg" id="svg2">
 <defs id="defs2"/>
 <path stroke="#32cd32" fill="none" d="m 49.06687,11.452516 a 1887.5906,1875.6675 0 0 0 503.35748,0 V 236.53262 a 1887.5906,1875.6675 0 0 1 -503.35748,0 z" stroke-width="12.5441" id="path1"/>
 <path stroke="#32cd32" fill="none" d="m 49.06687,149.00147 a 50.335748,50.0178 0 0 0 -37.751811,37.51335 v 25.0089 a 62.919685,62.52225 0 0 0 37.751811,62.52225 1887.5906,1875.6675 0 0 0 503.35748,0 62.919685,62.52225 0 0 0 37.75181,-62.52225 v -25.0089 a 50.335748,50.0178 0 0 0 -37.75181,-37.51335" stroke-width="12.5441" id="path2"/>
</svg>
<svg version="1.1" xmlns:svg="http://www.w3.org/2000/svg" width="600" height="300" xmlns="http://www.w3.org/2000/svg" id="svg2">
 <defs id="defs2"/>
 <path stroke="#32cd32" fill="none" d="m 49.06687,11.452516 a 1887.5906,1875.6675 0 0 0 503.35748,0 V 236.53262 a 1887.5906,1875.6675 0 0 1 -503.35748,0 z" stroke-width="12.5441" id="path1"/>
 <path stroke="#32cd32" fill="none" d="m 49.06687,149.00147 a 50.335748,50.0178 0 0 0 -37.751811,37.51335 v 25.0089 a 62.919685,62.52225 0 0 0 37.751811,62.52225 1887.5906,1875.6675 0 0 0 503.35748,0 62.919685,62.52225 0 0 0 37.75181,-62.52225 v -25.0089 a 50.335748,50.0178 0 0 0 -37.75181,-37.51335" stroke-width="12.5441" id="path2"/>
</svg>
