<?xml version="1.0" encoding="UTF-8" standalone="no"?>
<svg
   width="136.99994"
   height="225"
   version="1.1"
   id="svg4"
   xmlns="http://www.w3.org/2000/svg"
   xmlns:svg="http://www.w3.org/2000/svg">
  <defs
     id="defs4" />
  <g
     class="layer"
     transform="translate(-11.50003,-47.5)"
     id="g4">
    <path
       d="m 80,50 a 66,110 0 0 0 0,220 M 80,50 a 66,110 0 0 1 0,220"
       stroke="#f5b942"
       stroke-width="5"
       fill="#b87333"
       id="path1" />
    <path
       d="m 80,60 a 60,101 0 0 0 0,200 M 80,60 a 60,101 0 0 1 0,200"
       stroke="#f5b942"
       stroke-width="5"
       fill="#b87333"
       id="path2" />
    <path
       d="m 80,70 a 60,97 0 0 0 0,180 M 80,70 a 60,97 0 0 1 0,180"
       stroke="#f5b942"
       stroke-width="5"
       fill="#b87333"
       id="path3" />
    <path
       d="m 80,80 a 60,100 0 0 0 0,160 M 80,80 a 60,100 0 0 1 0,160"
       stroke="#f5b942"
       stroke-width="5"
       fill="#b87333"
       id="path4" />
    <circle
       r="20"
       cx="80"
       cy="160"
       fill="#edebeb"
       stroke="#2f2f2f"
       stroke-width="5px"
       id="circle4" />
  </g>
</svg>
