<?xml version="1.0" encoding="UTF-8" standalone="no"?>
<svg
   width="470.33823"
   height="234.11082"
   version="1.1"
   id="svg2"
   sodipodi:docname="dipole.svg"
   inkscape:version="1.3.2 (091e20ef0f, 2023-11-25, custom)"
   xmlns:inkscape="http://www.inkscape.org/namespaces/inkscape"
   xmlns:sodipodi="http://sodipodi.sourceforge.net/DTD/sodipodi-0.dtd"
   xmlns="http://www.w3.org/2000/svg"
   xmlns:svg="http://www.w3.org/2000/svg">
  <defs
     id="defs2" />
  <sodipodi:namedview
     id="namedview2"
     pagecolor="#ffffff"
     bordercolor="#666666"
     borderopacity="1.0"
     inkscape:showpageshadow="2"
     inkscape:pageopacity="0.0"
     inkscape:pagecheckerboard="0"
     inkscape:deskcolor="#d1d1d1"
     inkscape:zoom="3.77"
     inkscape:cx="298.40849"
     inkscape:cy="148.14324"
     inkscape:window-width="3440"
     inkscape:window-height="1335"
     inkscape:window-x="0"
     inkscape:window-y="32"
     inkscape:window-maximized="1"
     inkscape:current-layer="svg2" />
  <g
     class="layer"
     id="g2"
     transform="translate(-4.8308884,-4.2822813)">
    <path
       d="m 40,10 a 1500,1500 0 0 0 400,0 v 180 a 1500,1500 0 0 1 -400,0 z"
       stroke="#32cd32"
       stroke-width="10"
       fill="#f1fff0"
       id="path1" />
    <path
       d="m 40,120 a 40,40 0 0 0 -30,30 v 20 a 50,50 0 0 0 30,50 1500,1500 0 0 0 400,0 50,50 0 0 0 30,-50 v -20 a 40,40 0 0 0 -30,-30"
       stroke="#32cd32"
       stroke-width="10"
       fill="none"
       id="path2" />
  </g>
</svg>
