<?xml version="1.0" encoding="UTF-8" standalone="no"?>
<svg
   width="600"
   height="300"
   version="1.1"
   id="svg2"
   sodipodi:docname="dipole.svg"
   inkscape:version="1.3 (0e150ed6c4, 2023-07-21)"
   xmlns:inkscape="http://www.inkscape.org/namespaces/inkscape"
   xmlns:sodipodi="http://sodipodi.sourceforge.net/DTD/sodipodi-0.dtd"
   xmlns="http://www.w3.org/2000/svg"
   xmlns:svg="http://www.w3.org/2000/svg">
  <sodipodi:namedview
     id="namedview1"
     pagecolor="#ffffff"
     bordercolor="#666666"
     borderopacity="1.0"
     inkscape:showpageshadow="2"
     inkscape:pageopacity="0.0"
     inkscape:pagecheckerboard="0"
     inkscape:deskcolor="#d1d1d1"
     inkscape:zoom="1.8516667"
     inkscape:cx="300"
     inkscape:cy="149.86499"
     inkscape:window-width="1600"
     inkscape:window-height="1099"
     inkscape:window-x="0"
     inkscape:window-y="32"
     inkscape:window-maximized="1"
     inkscape:current-layer="svg2" />
  <defs
     id="defs2" />
  <path
     d="m 49.06687,11.452516 a 1887.5906,1875.6675 0 0 0 503.35748,0 V 236.53262 a 1887.5906,1875.6675 0 0 1 -503.35748,0 z"
     stroke="#32cd32"
     stroke-width="12.5441"
     fill="none"
     id="path1" />
  <path
     d="m 49.06687,149.00147 a 50.335748,50.0178 0 0 0 -37.751811,37.51335 v 25.0089 a 62.919685,62.52225 0 0 0 37.751811,62.52225 1887.5906,1875.6675 0 0 0 503.35748,0 62.919685,62.52225 0 0 0 37.75181,-62.52225 v -25.0089 a 50.335748,50.0178 0 0 0 -37.75181,-37.51335"
     stroke="#32cd32"
     stroke-width="12.5441"
     fill="none"
     id="path2" />
  <rect
     style="fill:#0094ec"
     id="rect1"
     width="9.6397943"
     height="9.7346678"
     x="0.79116893"
     y="0.38030231"
     rx="53.623901"
     ry="9.7346678" />
</svg>
