<svg viewBox="0 0 300px 610px" xmlns="http://www.w3.org/2000/svg"  transform="translate(-30,-120)" xmlns:svg="http://www.w3.org/2000/svg">
	<g transform="translate(500 1110) rotate(180) scale(2)">
		<rect x="134" y="420" width="10" height="30" stroke="#2f2f2f" stroke-width="13" fill="#c7c7c7" />
		<rect x="120" y="384" width="40" height="30" stroke="#2f2f2f" stroke-width="3" fill="#c7c7c7" />
		<line x1="120" y1="388" x2="160" y2="388" stroke="black" stroke-width="1px" />  
		<line x1="120" y1="392" x2="160" y2="392" stroke="black" stroke-width="1px" /> 
		<line x1="120" y1="396" x2="160" y2="396" stroke="black" stroke-width="1px" /> 
		<line x1="120" y1="400" x2="160" y2="400" stroke="black" stroke-width="1px" /> 
		<line x1="120" y1="404" x2="160" y2="404" stroke="black" stroke-width="1px" /> 
		<line x1="120" y1="408" x2="160" y2="408" stroke="black" stroke-width="1px" /> 
		<rect x="125" y="351" width="30" height="30" stroke="#2f2f2f" stroke-width="3" fill="#2f2f2f" />
		<line x1="110" y1="328" x2="170" y2="328" stroke="#c7c7c7" stroke-width="15px" />
		<rect x="120" y="305" width="40" height="50" stroke="#2f2f2f" stroke-width="3" fill="#5f5f5f" />
		<rect x="122" y="270" width="35" height="35" stroke="#2f2f2f" stroke-width="3" fill="orange" />
		<rect x="100" y="264" width="10" height="130" stroke="#2f2f2f" stroke-width="3" fill="#c7c7c7" />
		<rect x="170" y="264" width="10" height="130" stroke="#2f2f2f" stroke-width="3" fill="#c7c7c7" />
		<circle r="20" cx="140" cy="450" fill="#c7c7c7" stroke="#2f2f2f" stroke-width="3px" />
	</g>
</svg>