<?xml version="1.0" encoding="UTF-8" standalone="no"?>
<svg
   width="131.68642"
   height="133.91278"
   version="1.1"
   id="svg3"
   sodipodi:docname="sextupole.svg"
   inkscape:version="1.3.2 (091e20ef0f, 2023-11-25, custom)"
   xmlns:inkscape="http://www.inkscape.org/namespaces/inkscape"
   xmlns:sodipodi="http://sodipodi.sourceforge.net/DTD/sodipodi-0.dtd"
   xmlns="http://www.w3.org/2000/svg"
   xmlns:svg="http://www.w3.org/2000/svg">
  <defs
     id="defs3" />
  <sodipodi:namedview
     id="namedview3"
     pagecolor="#ffffff"
     bordercolor="#666666"
     borderopacity="1.0"
     inkscape:showpageshadow="2"
     inkscape:pageopacity="0.0"
     inkscape:pagecheckerboard="0"
     inkscape:deskcolor="#d1d1d1"
     inkscape:zoom="5.3857143"
     inkscape:cx="99.33687"
     inkscape:cy="104.62865"
     inkscape:window-width="3440"
     inkscape:window-height="1335"
     inkscape:window-x="0"
     inkscape:window-y="32"
     inkscape:window-maximized="1"
     inkscape:current-layer="svg3" />
  <g
     class="layer"
     transform="translate(-39.156792,-38.049941)"
     id="g3">
    <rect
       x="50"
       y="50"
       width="110"
       height="110"
       rx="10"
       ry="10"
       fill="#ffe000"
       stroke="#2f4f4f"
       stroke-width="5"
       id="rect1" />
    <text
       x="105"
       y="135"
       text-anchor="middle"
       font-family="Arial"
       font-size="90px"
       fill="#000000"
       stroke-width="2"
       id="text1">S</text>
    <path
       d="m 48,60 a 90,55 0 0 0 0,45 M 162,60 a 90,55 0 0 1 0,45"
       stroke="#ffe600"
       stroke-width="2"
       fill="#ff7501"
       id="path1" />
    <path
       d="m 48,105 a 90,55 0 0 0 0,45 m 114,-45 a 90,55 0 0 1 0,45"
       stroke="#ffe600"
       stroke-width="2"
       fill="#ff7501"
       id="path2" />
    <path
       d="m 80,48 q 25,-18 50,0 M 80,162 q 25,18 55,0"
       stroke="#ffe600"
       stroke-width="2"
       fill="#ff7501"
       id="path3" />
  </g>
</svg>
